<svg id="visual" viewBox="0 0 900 600" width="900" height="600" xmlns="http://www.w3.org/2000/svg" xmlns:xlink="http://www.w3.org/1999/xlink" version="1.1"><g transform="translate(444.91715915351887 333.3686287639974)"><path d="M161.1 -192.8C193.6 -164.7 194.3 -99.5 186.8 -47C179.4 5.6 163.7 45.5 140.6 77C117.4 108.4 86.8 131.2 53.5 140.5C20.3 149.7 -15.5 145.3 -58.3 139C-101.2 132.6 -151 124.3 -170.1 96C-189.1 67.6 -177.3 19.2 -172.5 -34.3C-167.7 -87.9 -170 -146.6 -142.4 -175.6C-114.8 -204.5 -57.4 -203.8 3.4 -207.9C64.3 -211.9 128.6 -220.9 161.1 -192.8" fill="#F957B0"></path></g></svg>